<?xml version="1.0" standalone="no"?>
<!DOCTYPE svg PUBLIC "-//W3C//DTD SVG 20010904//EN"
 "http://www.w3.org/TR/2001/REC-SVG-20010904/DTD/svg10.dtd">
<svg version="1.0" xmlns="http://www.w3.org/2000/svg"
 width="1236.000000pt" height="1280.000000pt" viewBox="0 0 1236.000000 1280.000000"
 preserveAspectRatio="xMidYMid meet">
<metadata>
Created by potrace 1.15, written by Peter Selinger 2001-2017
</metadata>
<g transform="translate(0.000000,1280.000000) scale(0.100000,-0.100000)"
fill="#000000" stroke="none">
<path d="M495 12784 c-179 -38 -351 -169 -428 -325 -117 -238 -77 -491 110
-689 l73 -78 -2 -2623 -3 -2624 -54 -7 c-73 -9 -128 -48 -164 -117 l-27 -55 0
-309 c0 -336 3 -362 53 -423 60 -72 68 -74 471 -74 l359 0 -7 -42 c-15 -98
-19 -360 -7 -465 16 -139 52 -300 97 -433 43 -127 154 -356 225 -465 50 -76
54 -89 90 -250 101 -450 271 -893 501 -1307 l59 -107 9 -148 c5 -81 10 -383
10 -670 l0 -523 -24 0 c-43 0 -179 -48 -241 -85 -261 -157 -343 -459 -188
-692 90 -136 255 -235 441 -263 45 -7 1220 -10 3627 -8 l3560 3 70 23 c157 53
271 133 344 243 130 194 103 430 -68 600 -76 76 -144 116 -256 155 -73 25 -95
28 -263 32 l-184 4 5 432 c5 484 9 512 84 666 75 155 196 242 427 309 323 94
688 283 1008 524 391 294 479 366 657 540 161 158 271 289 386 462 218 328
330 629 366 985 11 115 6 343 -10 427 l-8 42 276 3 c314 3 331 7 410 88 73 76
81 113 81 404 0 273 -7 320 -54 385 -38 51 -111 99 -165 107 -25 4 -1902 7
-4171 8 l-4125 1 -3 2576 -2 2576 57 21 c94 35 181 93 248 164 143 155 196
355 145 553 -28 108 -80 197 -164 280 -74 73 -146 117 -256 157 l-65 23 -1620
2 c-1398 1 -1630 0 -1690 -13z"/>
<path d="M3923 11490 c-60 -36 -63 -53 -63 -317 0 -221 2 -240 20 -271 23 -37
72 -62 125 -62 l35 0 0 -55 c0 -78 27 -105 104 -105 102 0 126 28 126 149 0
40 5 72 13 79 9 10 13 76 15 245 4 264 -2 297 -57 334 -31 21 -45 23 -160 23
-107 0 -131 -3 -158 -20z"/>
<path d="M5013 7279 c-159 -18 -219 -85 -238 -263 l-7 -66 3491 0 3491 0 0 25
c0 41 -46 119 -95 163 -88 77 -223 126 -395 142 -130 12 -6141 11 -6247 -1z"/>
<path d="M4700 7229 c-117 -22 -283 -134 -393 -268 l-58 -71 53 0 c33 0 67 -7
88 -19 40 -20 80 -83 80 -123 0 -15 4 -29 8 -32 4 -3 35 36 68 86 67 102 130
166 173 174 l29 6 4 122 c3 66 2 124 -1 127 -3 3 -26 2 -51 -2z"/>
<path d="M4807 6880 c-73 -13 -150 -54 -180 -98 -31 -43 -57 -145 -57 -219 l0
-53 3815 0 3815 0 0 28 c0 47 -45 125 -102 178 -89 84 -205 135 -368 159 -82
13 -574 15 -3485 14 -1864 -1 -3412 -5 -3438 -9z"/>
<path d="M4226 6853 c-76 -21 -137 -102 -137 -180 -1 -114 76 -195 186 -197
183 -2 260 240 109 347 -39 27 -116 42 -158 30z"/>
</g>
</svg>
