<?xml version="1.0" standalone="no"?>
<!DOCTYPE svg PUBLIC "-//W3C//DTD SVG 20010904//EN"
 "http://www.w3.org/TR/2001/REC-SVG-20010904/DTD/svg10.dtd">
<svg version="1.0" xmlns="http://www.w3.org/2000/svg"
 width="652.000000pt" height="1280.000000pt" viewBox="0 0 652.000000 1280.000000"
 preserveAspectRatio="xMidYMid meet">
<metadata>
Created by potrace 1.15, written by Peter Selinger 2001-2017
</metadata>
<g transform="translate(0.000000,1280.000000) scale(0.100000,-0.100000)"
fill="#000000" stroke="none">
<path d="M3092 12785 c-360 -65 -650 -295 -790 -625 -62 -144 -85 -274 -79
-440 3 -93 11 -160 25 -216 81 -306 275 -548 550 -684 520 -256 1142 -45 1397
475 63 129 91 226 104 362 35 381 -143 756 -459 965 -225 148 -499 208 -748
163z"/>
<path d="M1993 10475 c-379 -59 -696 -270 -923 -613 -107 -161 -79 -79 -490
-1432 -162 -533 -338 -1112 -464 -1528 -53 -173 -101 -343 -107 -380 -41 -232
81 -448 288 -512 161 -50 324 -5 436 119 84 94 72 60 377 1086 67 226 164 550
215 720 50 171 145 489 210 708 l119 397 218 0 c181 0 218 -2 218 -14 0 -8
-32 -128 -71 -268 -70 -251 -279 -1004 -824 -2963 -415 -1493 -425 -1528 -431
-1547 -5 -17 30 -18 640 -18 l646 0 0 -1902 c0 -2072 -3 -1964 56 -2080 52
-103 156 -188 276 -225 79 -26 245 -23 322 6 147 53 243 152 293 301 17 52 18
144 21 1988 l2 1932 245 0 245 0 0 -1935 c0 -1933 0 -1936 21 -1998 63 -188
213 -299 424 -314 253 -17 466 146 504 387 7 43 11 699 11 1953 l0 1887 640 0
c417 0 640 3 640 10 0 5 -72 268 -161 582 -88 315 -200 715 -249 888 -49 173
-161 574 -250 890 -275 980 -339 1207 -410 1460 -38 135 -114 406 -169 603
-56 197 -101 362 -101 367 0 6 90 10 230 10 l229 0 21 -72 c12 -40 30 -100 40
-133 10 -33 55 -184 100 -335 45 -151 120 -403 167 -560 46 -157 116 -390 154
-517 146 -490 212 -714 265 -893 30 -102 65 -210 76 -240 83 -215 272 -336
469 -300 227 41 374 244 356 490 -6 75 -14 104 -238 840 -200 657 -521 1714
-606 1995 -43 144 -94 289 -119 342 -59 124 -169 267 -304 396 -246 236 -528
378 -835 422 -139 20 -2295 20 -2422 0z"/>
</g>
</svg>
